# xmcd
# 
# Track frame offsets:
#     150
#     16048
#     32296
#     58574
# 
# Disc length: 1061
# 
# Revision: 0
# Processed by: cddbd v1.5.2PL0 Copyright (c) Steve Scherf et al.
# Submitted via: BonkEnc v1.0.8
# 
DISCID=1e042304
DTITLE=Club Unique - Just The Way It Is [Single]
DYEAR=1997
DGENRE=Electronic
TTITLE0=Just The Way It Is [Radio Edit]
TTITLE1=Just The Way It Is [Hoff's Benztown Radio Edit]
TTITLE2=Just The Way It Is [Bounce Club Mix]
TTITLE3=Let Me Live (My Own Life)
EXTD=
EXTT0=
EXTT1=
EXTT2=
EXTT3=
PLAYORDER=
